<svg width="520" height="265" viewBox="0 0 520 265" fill="none" xmlns="http://www.w3.org/2000/svg">
<g filter="url(#filter0_d)">
<rect x="70" y="60" width="380" height="125" rx="62.5" fill="#3B5998"/>
<path d="M247.547 135V126.068H256.827V121.403H247.547V115.958H257.757V111.044H241.454V135H247.547ZM272.225 135C277.355 135 280.592 132.294 280.592 128.094C280.592 124.906 278.035 122.499 274.798 122.35V122.217C277.454 121.852 279.48 119.71 279.48 117.021C279.48 113.318 276.641 111.044 271.926 111.044H260.786V135H272.225ZM266.879 115.36H270.316C272.358 115.36 273.553 116.356 273.553 118.033C273.553 119.76 272.225 120.806 270.017 120.806H266.879V115.36ZM266.879 130.684V124.508H270.465C272.972 124.508 274.399 125.604 274.399 127.562C274.399 129.588 273.005 130.684 270.498 130.684H266.879Z" fill="white"/>
</g>
<defs>
<filter id="filter0_d" x="0" y="0" width="520" height="265" filterUnits="userSpaceOnUse" color-interpolation-filters="sRGB">
<feFlood flood-opacity="0" result="BackgroundImageFix"/>
<feColorMatrix in="SourceAlpha" type="matrix" values="0 0 0 0 0 0 0 0 0 0 0 0 0 0 0 0 0 0 127 0"/>
<feOffset dy="10"/>
<feGaussianBlur stdDeviation="35"/>
<feColorMatrix type="matrix" values="0 0 0 0 0 0 0 0 0 0 0 0 0 0 0 0 0 0 0.25 0"/>
<feBlend mode="normal" in2="BackgroundImageFix" result="effect1_dropShadow"/>
<feBlend mode="normal" in="SourceGraphic" in2="effect1_dropShadow" result="shape"/>
</filter>
</defs>
</svg>
