<svg width="520" height="265" viewBox="0 0 520 265" fill="none" xmlns="http://www.w3.org/2000/svg">
<g filter="url(#filter0_d)">
<rect width="380" height="125" rx="62.5" transform="matrix(-1 0 0 1 450 60)" fill="url(#paint0_diamond)"/>
<path d="M176.246 135V126.068H185.527V121.403H176.246V115.958H186.456V111.044H170.154V135H176.246ZM205.49 130.086H195.579V111.044H189.486V135H205.49V130.086ZM214.712 135V111.044H208.619V135H214.712ZM229.661 135.415C235.837 135.415 240.253 131.663 240.535 125.969H234.675C234.293 128.774 232.35 130.534 229.678 130.534C226.324 130.534 224.232 127.695 224.232 122.997C224.232 118.349 226.341 115.51 229.661 115.51C232.334 115.51 234.343 117.369 234.641 120.191H240.502C240.319 114.53 235.721 110.629 229.661 110.629C222.522 110.629 218.023 115.194 218.023 123.014C218.023 130.85 222.489 135.415 229.661 135.415ZM249.823 135V128.227L251.865 125.637L257.975 135H265.13L256.298 121.686L264.648 111.044H258.107L249.956 121.569H249.823V111.044H243.73V135H249.823ZM267.346 111.044V135H273.439V127.978H277.357C282.686 127.978 286.355 124.641 286.355 119.527C286.355 114.381 282.868 111.044 277.722 111.044H267.346ZM273.439 115.709H276.111C278.668 115.709 280.195 117.054 280.195 119.544C280.195 122.051 278.668 123.396 276.078 123.396H273.439V115.709ZM305.405 130.086H295.493V111.044H289.401V135H305.405V130.086ZM324.289 135H330.763L322.711 111.044H315.257L307.206 135H313.415L314.942 129.737H322.778L324.289 135ZM318.793 116.124H318.926L321.583 125.354H316.121L318.793 116.124ZM342.907 135V126.766L351.158 111.044H344.733L339.985 121.005H339.869L335.104 111.044H328.563L336.814 126.766V135H342.907Z" fill="white"/>
</g>
<defs>
<filter id="filter0_d" x="0" y="0" width="520" height="265" filterUnits="userSpaceOnUse" color-interpolation-filters="sRGB">
<feFlood flood-opacity="0" result="BackgroundImageFix"/>
<feColorMatrix in="SourceAlpha" type="matrix" values="0 0 0 0 0 0 0 0 0 0 0 0 0 0 0 0 0 0 127 0"/>
<feOffset dy="10"/>
<feGaussianBlur stdDeviation="35"/>
<feColorMatrix type="matrix" values="0 0 0 0 0 0 0 0 0 0 0 0 0 0 0 0 0 0 0.25 0"/>
<feBlend mode="normal" in2="BackgroundImageFix" result="effect1_dropShadow"/>
<feBlend mode="normal" in="SourceGraphic" in2="effect1_dropShadow" result="shape"/>
</filter>
<radialGradient id="paint0_diamond" cx="0" cy="0" r="1" gradientUnits="userSpaceOnUse" gradientTransform="translate(72 114) rotate(-52.6333) scale(173.007 1012.44)">
<stop stop-color="#FF0075"/>
<stop offset="1" stop-color="#FFA826"/>
</radialGradient>
</defs>
</svg>
