<svg width="520" height="265" viewBox="0 0 520 265" fill="none" xmlns="http://www.w3.org/2000/svg">
<g filter="url(#filter0_d)">
<rect x="70" y="60" width="380" height="125" rx="62.5" fill="url(#paint0_diamond)"/>
<path d="M139.902 135V111.044H133.81V135H139.902ZM150.062 128.061C150.128 132.709 153.897 135.415 160.006 135.415C166.182 135.415 170.117 132.377 170.117 127.612C170.117 123.827 167.992 121.686 163.26 120.772L160.156 120.191C157.649 119.677 156.586 118.963 156.586 117.668C156.586 116.207 157.997 115.244 160.122 115.244C162.314 115.244 163.924 116.29 164.04 118.033H169.652C169.585 113.534 166.049 110.629 160.056 110.629C154.511 110.629 150.527 113.617 150.527 118.266C150.527 121.901 152.801 124.292 157.217 125.139L160.355 125.753C163.077 126.317 164.09 126.965 164.09 128.293C164.09 129.737 162.546 130.8 160.172 130.8C157.914 130.8 156.072 129.704 155.856 128.061H150.062ZM189.731 130.086H179.405V125.205H189.117V120.723H179.405V115.958H189.731V111.044H173.312V135H189.731V130.086ZM204.481 135.415C210.657 135.415 215.073 131.663 215.355 125.969H209.495C209.113 128.774 207.171 130.534 204.498 130.534C201.144 130.534 199.052 127.695 199.052 122.997C199.052 118.349 201.161 115.51 204.481 115.51C207.154 115.51 209.163 117.369 209.462 120.191H215.322C215.139 114.53 210.541 110.629 204.481 110.629C197.342 110.629 192.843 115.194 192.843 123.014C192.843 130.85 197.309 135.415 204.481 135.415ZM229.723 110.629C222.469 110.629 217.887 115.394 217.887 123.03C217.887 130.667 222.452 135.415 229.723 135.415C236.978 135.415 241.544 130.667 241.544 123.03C241.544 115.394 236.978 110.629 229.723 110.629ZM229.723 115.576C233.127 115.576 235.351 118.465 235.351 123.03C235.351 127.579 233.127 130.468 229.723 130.468C226.304 130.468 224.096 127.579 224.096 123.03C224.096 118.465 226.32 115.576 229.723 115.576ZM250.633 135V120.938H250.766L260.976 135H265.79V111.044H260.013V124.973H259.88L249.72 111.044H244.855V135H250.633ZM269.766 111.044V135H279.494C286.716 135 290.983 130.534 290.983 122.881C290.983 115.244 286.733 111.044 279.494 111.044H269.766ZM275.859 115.958H278.697C282.549 115.958 284.79 118.398 284.79 122.897C284.79 127.679 282.665 130.086 278.697 130.086H275.859V115.958ZM312.863 135V115.958H319.47V111.044H300.179V115.958H306.787V135H312.863ZM344.098 135V111.044H338.022V120.44H328.476V111.044H322.383V135H328.476V125.354H338.022V135H344.098ZM363.845 135H370.32L362.268 111.044H354.814L346.762 135H352.971L354.499 129.737H362.335L363.845 135ZM358.35 116.124H358.483L361.139 125.354H355.678L358.35 116.124ZM381.418 135V115.958H388.025V111.044H368.734V115.958H375.342V135H381.418Z" fill="white"/>
</g>
<defs>
<filter id="filter0_d" x="0" y="0" width="520" height="265" filterUnits="userSpaceOnUse" color-interpolation-filters="sRGB">
<feFlood flood-opacity="0" result="BackgroundImageFix"/>
<feColorMatrix in="SourceAlpha" type="matrix" values="0 0 0 0 0 0 0 0 0 0 0 0 0 0 0 0 0 0 127 0"/>
<feOffset dy="10"/>
<feGaussianBlur stdDeviation="35"/>
<feColorMatrix type="matrix" values="0 0 0 0 0 0 0 0 0 0 0 0 0 0 0 0 0 0 0.25 0"/>
<feBlend mode="normal" in2="BackgroundImageFix" result="effect1_dropShadow"/>
<feBlend mode="normal" in="SourceGraphic" in2="effect1_dropShadow" result="shape"/>
</filter>
<radialGradient id="paint0_diamond" cx="0" cy="0" r="1" gradientUnits="userSpaceOnUse" gradientTransform="translate(142 174) rotate(-52.6333) scale(173.007 1012.44)">
<stop stop-color="#FF0075"/>
<stop offset="1" stop-color="#FFA826"/>
</radialGradient>
</defs>
</svg>
