<svg width="520" height="265" viewBox="0 0 520 265" fill="none" xmlns="http://www.w3.org/2000/svg">
<g filter="url(#filter0_d)">
<rect x="70" y="65" width="380" height="125" rx="62.5" fill="url(#paint0_diamond)"/>
<path d="M139.902 140V116.044H133.81V140H139.902ZM150.062 133.061C150.128 137.709 153.897 140.415 160.006 140.415C166.182 140.415 170.117 137.377 170.117 132.612C170.117 128.827 167.992 126.686 163.26 125.772L160.156 125.191C157.649 124.677 156.586 123.963 156.586 122.668C156.586 121.207 157.997 120.244 160.122 120.244C162.314 120.244 163.924 121.29 164.04 123.033H169.652C169.585 118.534 166.049 115.629 160.056 115.629C154.511 115.629 150.527 118.617 150.527 123.266C150.527 126.901 152.801 129.292 157.217 130.139L160.355 130.753C163.077 131.317 164.09 131.965 164.09 133.293C164.09 134.737 162.546 135.8 160.172 135.8C157.914 135.8 156.072 134.704 155.856 133.061H150.062ZM189.731 135.086H179.405V130.205H189.117V125.723H179.405V120.958H189.731V116.044H173.312V140H189.731V135.086ZM204.481 140.415C210.657 140.415 215.073 136.663 215.355 130.969H209.495C209.113 133.774 207.171 135.534 204.498 135.534C201.144 135.534 199.052 132.695 199.052 127.997C199.052 123.349 201.161 120.51 204.481 120.51C207.154 120.51 209.163 122.369 209.462 125.191H215.322C215.139 119.53 210.541 115.629 204.481 115.629C197.342 115.629 192.843 120.194 192.843 128.014C192.843 135.85 197.309 140.415 204.481 140.415ZM229.723 115.629C222.469 115.629 217.887 120.394 217.887 128.03C217.887 135.667 222.452 140.415 229.723 140.415C236.978 140.415 241.544 135.667 241.544 128.03C241.544 120.394 236.978 115.629 229.723 115.629ZM229.723 120.576C233.127 120.576 235.351 123.465 235.351 128.03C235.351 132.579 233.127 135.468 229.723 135.468C226.304 135.468 224.096 132.579 224.096 128.03C224.096 123.465 226.32 120.576 229.723 120.576ZM250.633 140V125.938H250.766L260.976 140H265.79V116.044H260.013V129.973H259.88L249.72 116.044H244.855V140H250.633ZM269.766 116.044V140H279.494C286.716 140 290.983 135.534 290.983 127.881C290.983 120.244 286.733 116.044 279.494 116.044H269.766ZM275.859 120.958H278.697C282.549 120.958 284.79 123.398 284.79 127.897C284.79 132.679 282.665 135.086 278.697 135.086H275.859V120.958ZM312.863 140V120.958H319.47V116.044H300.179V120.958H306.787V140H312.863ZM344.098 140V116.044H338.022V125.44H328.476V116.044H322.383V140H328.476V130.354H338.022V140H344.098ZM363.845 140H370.32L362.268 116.044H354.814L346.762 140H352.971L354.499 134.737H362.335L363.845 140ZM358.35 121.124H358.483L361.139 130.354H355.678L358.35 121.124ZM381.418 140V120.958H388.025V116.044H368.734V120.958H375.342V140H381.418Z" fill="white"/>
</g>
<defs>
<filter id="filter0_d" x="0" y="0" width="520" height="265" filterUnits="userSpaceOnUse" color-interpolation-filters="sRGB">
<feFlood flood-opacity="0" result="BackgroundImageFix"/>
<feColorMatrix in="SourceAlpha" type="matrix" values="0 0 0 0 0 0 0 0 0 0 0 0 0 0 0 0 0 0 127 0"/>
<feOffset dy="5"/>
<feGaussianBlur stdDeviation="35"/>
<feColorMatrix type="matrix" values="0 0 0 0 0 0 0 0 0 0 0 0 0 0 0 0 0 0 0.2 0"/>
<feBlend mode="normal" in2="BackgroundImageFix" result="effect1_dropShadow"/>
<feBlend mode="normal" in="SourceGraphic" in2="effect1_dropShadow" result="shape"/>
</filter>
<radialGradient id="paint0_diamond" cx="0" cy="0" r="1" gradientUnits="userSpaceOnUse" gradientTransform="translate(142 179) rotate(-52.6333) scale(173.007 1012.44)">
<stop stop-color="#FF0075"/>
<stop offset="1" stop-color="#FFA826"/>
</radialGradient>
</defs>
</svg>
