<svg width="438" height="186" viewBox="0 0 438 186" fill="none" xmlns="http://www.w3.org/2000/svg">
<g filter="url(#filter0_d)">
<rect x="29" y="30" width="380" height="125" rx="62.5" fill="url(#paint0_diamond)"/>
<path d="M98.9023 105V81.0439H92.8096V105H98.9023ZM109.062 98.0605C109.128 102.709 112.897 105.415 119.006 105.415C125.182 105.415 129.117 102.377 129.117 97.6123C129.117 93.8271 126.992 91.6855 122.26 90.7725L119.156 90.1914C116.649 89.6768 115.586 88.9629 115.586 87.668C115.586 86.207 116.997 85.2441 119.122 85.2441C121.314 85.2441 122.924 86.29 123.04 88.0332H128.652C128.585 83.5342 125.049 80.6289 119.056 80.6289C113.511 80.6289 109.527 83.6172 109.527 88.2656C109.527 91.9014 111.801 94.292 116.217 95.1387L119.355 95.7529C122.077 96.3174 123.09 96.9648 123.09 98.293C123.09 99.7373 121.546 100.8 119.172 100.8C116.914 100.8 115.072 99.7041 114.856 98.0605H109.062ZM148.731 100.086H138.405V95.2051H148.117V90.7227H138.405V85.958H148.731V81.0439H132.312V105H148.731V100.086ZM163.481 105.415C169.657 105.415 174.073 101.663 174.355 95.9688H168.495C168.113 98.7744 166.171 100.534 163.498 100.534C160.144 100.534 158.052 97.6953 158.052 92.9971C158.052 88.3486 160.161 85.5098 163.481 85.5098C166.154 85.5098 168.163 87.3691 168.462 90.1914H174.322C174.139 84.5303 169.541 80.6289 163.481 80.6289C156.342 80.6289 151.843 85.1943 151.843 93.0137C151.843 100.85 156.309 105.415 163.481 105.415ZM188.723 80.6289C181.469 80.6289 176.887 85.3936 176.887 93.0303C176.887 100.667 181.452 105.415 188.723 105.415C195.978 105.415 200.544 100.667 200.544 93.0303C200.544 85.3936 195.978 80.6289 188.723 80.6289ZM188.723 85.5762C192.127 85.5762 194.351 88.4648 194.351 93.0303C194.351 97.5791 192.127 100.468 188.723 100.468C185.304 100.468 183.096 97.5791 183.096 93.0303C183.096 88.4648 185.32 85.5762 188.723 85.5762ZM209.633 105V90.9385H209.766L219.976 105H224.79V81.0439H219.013V94.9727H218.88L208.72 81.0439H203.855V105H209.633ZM228.766 81.0439V105H238.494C245.716 105 249.983 100.534 249.983 92.8809C249.983 85.2441 245.733 81.0439 238.494 81.0439H228.766ZM234.859 85.958H237.697C241.549 85.958 243.79 88.3984 243.79 92.8975C243.79 97.6787 241.665 100.086 237.697 100.086H234.859V85.958ZM271.863 105V85.958H278.47V81.0439H259.179V85.958H265.787V105H271.863ZM303.098 105V81.0439H297.022V90.4404H287.476V81.0439H281.383V105H287.476V95.3545H297.022V105H303.098ZM322.845 105H329.32L321.268 81.0439H313.814L305.762 105H311.971L313.499 99.7373H321.335L322.845 105ZM317.35 86.124H317.483L320.139 95.3545H314.678L317.35 86.124ZM340.418 105V85.958H347.025V81.0439H327.734V85.958H334.342V105H340.418Z" fill="white"/>
</g>
<defs>
<filter id="filter0_d" x="-11" y="-5" width="460" height="205" filterUnits="userSpaceOnUse" color-interpolation-filters="sRGB">
<feFlood flood-opacity="0" result="BackgroundImageFix"/>
<feColorMatrix in="SourceAlpha" type="matrix" values="0 0 0 0 0 0 0 0 0 0 0 0 0 0 0 0 0 0 127 0"/>
<feOffset dy="5"/>
<feGaussianBlur stdDeviation="20"/>
<feColorMatrix type="matrix" values="0 0 0 0 0 0 0 0 0 0 0 0 0 0 0 0 0 0 0.15 0"/>
<feBlend mode="normal" in2="BackgroundImageFix" result="effect1_dropShadow"/>
<feBlend mode="normal" in="SourceGraphic" in2="effect1_dropShadow" result="shape"/>
</filter>
<radialGradient id="paint0_diamond" cx="0" cy="0" r="1" gradientUnits="userSpaceOnUse" gradientTransform="translate(101 144) rotate(-52.6333) scale(173.007 1012.44)">
<stop stop-color="#FF0075"/>
<stop offset="1" stop-color="#FFA826"/>
</radialGradient>
</defs>
</svg>
